<?xml version="1.0" encoding="UTF-8" standalone="no"?>
<svg
   xmlns:dc="http://purl.org/dc/elements/1.1/"
   xmlns:cc="http://creativecommons.org/ns#"
   xmlns:rdf="http://www.w3.org/1999/02/22-rdf-syntax-ns#"
   xmlns:svg="http://www.w3.org/2000/svg"
   xmlns="http://www.w3.org/2000/svg"
   xmlns:sodipodi="http://sodipodi.sourceforge.net/DTD/sodipodi-0.dtd"
   xmlns:inkscape="http://www.inkscape.org/namespaces/inkscape"
   width="480"
   height="480"
   version="1.1"
   id="svg170"
   sodipodi:docname="VSDroid.svg"
   inkscape:version="1.0.2 (e86c870879, 2021-01-15)">
  <metadata
     id="metadata176">
    <rdf:RDF>
      <cc:Work
         rdf:about="">
        <dc:format>image/svg+xml</dc:format>
        <dc:type
           rdf:resource="http://purl.org/dc/dcmitype/StillImage" />
        <dc:title></dc:title>
      </cc:Work>
    </rdf:RDF>
  </metadata>
  <defs
     id="defs174" />
  <sodipodi:namedview
     pagecolor="#ffffff"
     bordercolor="#666666"
     borderopacity="1"
     objecttolerance="10"
     gridtolerance="10"
     guidetolerance="10"
     inkscape:pageopacity="0"
     inkscape:pageshadow="2"
     inkscape:window-width="2036"
     inkscape:window-height="1475"
     id="namedview172"
     showgrid="false"
     inkscape:pagecheckerboard="true"
     inkscape:snap-grids="true"
     inkscape:zoom="2.1655145"
     inkscape:cx="158.98061"
     inkscape:cy="305.83233"
     inkscape:window-x="0"
     inkscape:window-y="27"
     inkscape:window-maximized="1"
     inkscape:current-layer="layer1" />
  <g
     inkscape:groupmode="layer"
     id="layer1"
     inkscape:label="Layer 1"
     style="display:inline;opacity:1">
    <path
       id="path211"
       style="fill:#5400fe;fill-opacity:1;stroke-width:1.14127"
       d="M 239.38477,86.994141 A 168.80925,168.80925 0 0 0 71.34375,255.80273 168.80925,168.80925 0 0 0 99.820312,349.62891 L 135.30664,325.8418 a 125.7162,125.7162 0 0 1 -20.86914,-69.36328 125.7162,125.7162 0 0 1 125.29688,-125.7168 125.7162,125.7162 0 0 1 0.41992,0 125.7162,125.7162 0 0 1 125.71679,125.7168 125.7162,125.7162 0 0 1 -21.25,69.9375 l 35.16993,24.23828 a 168.80925,168.80925 0 0 0 29.16992,-94.85157 168.80925,168.80925 0 0 0 -168.8086,-168.808589 168.80925,168.80925 0 0 0 -0.76757,0 z" />
    <rect
       style="display:inline;fill:#ffffff;fill-opacity:1"
       id="rect232"
       width="208"
       height="8"
       x="136"
       y="284" />
    <rect
       style="display:inline;fill:#ff0000;fill-opacity:1;stroke-width:1.19799"
       id="rect236"
       width="158.70505"
       height="21.261913"
       x="-12.037569"
       y="334.2941"
       transform="rotate(-45)" />
    <g
       aria-label="VSD"
       id="text244"
       style="font-style:normal;font-weight:normal;font-size:102.214px;line-height:1.25;font-family:sans-serif;display:inline;fill:#ffffff;fill-opacity:1;stroke:none;stroke-width:1.06473">
      <path
         d="m 121.7403,191.74552 h 19.31485 l 19.76403,54.99991 19.71413,-54.99991 h 19.31485 l -27.59978,74.5144 h -22.90831 z"
         style="font-style:normal;font-variant:normal;font-weight:bold;font-stretch:normal;font-size:102.214px;font-family:sans-serif;-inkscape-font-specification:'sans-serif Bold';fill:#ffffff;stroke-width:1.06473"
         id="path298" />
      <path
         d="m 261.58581,194.09125 v 15.7713 q -6.13883,-2.74501 -11.9782,-4.14246 -5.83937,-1.39746 -11.02993,-1.39746 -6.88746,0 -10.18147,1.89655 -3.29401,1.89655 -3.29401,5.88928 0,2.99455 2.19601,4.69146 2.24591,1.64701 8.08528,2.84483 l 8.18511,1.647 q 12.42739,2.49546 17.66785,7.58619 5.24046,5.09074 5.24046,14.47367 0,12.32756 -7.33665,18.36657 -7.28674,5.9891 -22.3094,5.9891 -7.0871,0 -14.22411,-1.34754 -7.13702,-1.34755 -14.27403,-3.99274 v -16.22048 q 7.13701,3.7931 13.77493,5.73955 6.68783,1.89655 12.87657,1.89655 6.28856,0 9.63247,-2.09618 3.34392,-2.09619 3.34392,-5.9891 0,-3.49365 -2.29582,-5.39019 -2.24592,-1.89655 -9.03357,-3.39383 l -7.43646,-1.647 q -11.17966,-2.39564 -16.37021,-7.63611 -5.14065,-5.24046 -5.14065,-14.12429 0,-11.12975 7.18692,-17.11885 7.18692,-5.9891 20.6624,-5.9891 6.13883,0 12.62702,0.94827 6.4882,0.89837 13.42557,2.74501 z"
         style="font-style:normal;font-variant:normal;font-weight:bold;font-stretch:normal;font-size:102.214px;font-family:sans-serif;-inkscape-font-specification:'sans-serif Bold';fill:#ffffff;stroke-width:1.06473"
         id="path300" />
      <path
         d="m 302.56124,206.26909 v 45.46726 h 6.88747 q 11.77856,0 17.9673,-5.83938 6.23865,-5.83937 6.23865,-16.96912 0,-11.07983 -6.18874,-16.8693 -6.18874,-5.78946 -18.01721,-5.78946 z m -19.21503,-14.52357 h 20.26312 q 16.96912,0 25.25405,2.44554 8.33483,2.39565 14.27402,8.18511 5.24046,5.04083 7.78583,11.62884 2.54537,6.58801 2.54537,14.92284 0,8.43465 -2.54537,15.07257 -2.54537,6.58802 -7.78583,11.62884 -5.9891,5.78947 -14.37384,8.23502 -8.38474,2.39564 -25.15423,2.39564 h -20.26312 z"
         style="font-style:normal;font-variant:normal;font-weight:bold;font-stretch:normal;font-size:102.214px;font-family:sans-serif;-inkscape-font-specification:'sans-serif Bold';fill:#ffffff;stroke-width:1.06473"
         id="path302" />
    </g>
    <g
       aria-label="ROID"
       id="text248"
       style="font-style:normal;font-variant:normal;font-weight:bold;font-stretch:normal;font-size:64px;line-height:1.25;font-family:sans-serif;-inkscape-font-specification:'sans-serif Bold';display:inline;fill:#999999;fill-opacity:1;stroke:none">
      <path
         d="m 174.02255,321.80249 q 3.78125,0 5.40625,-1.40625 1.65625,-1.40625 1.65625,-4.625 0,-3.1875 -1.65625,-4.5625 -1.625,-1.375 -5.40625,-1.375 h -5.0625 v 11.96875 z m -5.0625,8.3125 v 17.65625 H 156.9288 v -46.65625 h 18.375 q 9.21875,0 13.5,3.09375 4.3125,3.09375 4.3125,9.78125 0,4.625 -2.25,7.59375 -2.21875,2.96875 -6.71875,4.375 2.46875,0.5625 4.40625,2.5625 1.96875,1.96875 3.96875,6 l 6.53125,13.25 h -12.8125 l -5.6875,-11.59375 q -1.71875,-3.5 -3.5,-4.78125 -1.75,-1.28125 -4.6875,-1.28125 z"
         id="path305" />
      <path
         d="m 227.52255,308.98999 q -5.5,0 -8.53125,4.0625 -3.03125,4.0625 -3.03125,11.4375 0,7.34375 3.03125,11.40625 3.03125,4.0625 8.53125,4.0625 5.53125,0 8.5625,-4.0625 3.03125,-4.0625 3.03125,-11.40625 0,-7.375 -3.03125,-11.4375 -3.03125,-4.0625 -8.5625,-4.0625 z m 0,-8.71875 q 11.25,0 17.625,6.4375 6.375,6.4375 6.375,17.78125 0,11.3125 -6.375,17.75 -6.375,6.4375 -17.625,6.4375 -11.21875,0 -17.625,-6.4375 -6.375,-6.4375 -6.375,-17.75 0,-11.34375 6.375,-17.78125 6.40625,-6.4375 17.625,-6.4375 z"
         id="path307" />
      <path
         d="m 260.6163,301.11499 h 12.03125 v 46.65625 H 260.6163 Z"
         id="path309" />
      <path
         d="m 296.46005,310.20874 v 28.46875 h 4.3125 q 7.375,0 11.25,-3.65625 3.90625,-3.65625 3.90625,-10.625 0,-6.9375 -3.875,-10.5625 -3.875,-3.625 -11.28125,-3.625 z m -12.03125,-9.09375 h 12.6875 q 10.625,0 15.8125,1.53125 5.21875,1.5 8.9375,5.125 3.28125,3.15625 4.875,7.28125 1.59375,4.125 1.59375,9.34375 0,5.28125 -1.59375,9.4375 -1.59375,4.125 -4.875,7.28125 -3.75,3.625 -9,5.15625 -5.25,1.5 -15.75,1.5 h -12.6875 z"
         id="path311" />
    </g>
  </g>
  <g
     inkscape:groupmode="layer"
     id="layer2"
     inkscape:label="org"
     style="display:none">
    <g
       class="layer"
       id="g168">
      <title
         id="title154">Layer 1</title>
      <path
         d="m 321,108 c 1.52,0.81 1.52,0.81 3.08,1.64 18.78,10.36 36.1,25.18 48.92,42.36 1.19,1.56 1.19,1.56 2.41,3.16 14.49,19.33 24.37,41.26 29.59,64.84 0.3,1.21 0.6,2.41 0.9,3.66 8.39,37.74 0.69,79.93 -17.9,113.34 -0.65,1.21 -1.3,2.43 -1.95,3.64 -3.44,6.2 -3.44,6.2 -5.05,8.36 -4.26,0 -6.87,-2.3 -10.29,-4.59 -1.06,-0.7 -1.06,-0.7 -2.14,-1.42 -2.26,-1.49 -4.51,-2.99 -6.76,-4.49 -1.53,-1.01 -3.05,-2.02 -4.58,-3.04 -3.75,-2.48 -7.49,-4.97 -11.23,-7.46 1.34,-3.47 2.88,-6.67 4.72,-9.91 4.88,-8.7 8.44,-17.54 11.28,-27.09 0.21,-0.69 0.42,-1.38 0.64,-2.09 6.23,-21.09 5.78,-46.94 -0.64,-67.91 -0.21,-0.71 -0.42,-1.42 -0.63,-2.15 -5.35,-17.8 -14.15,-34.63 -27.37,-47.85 -5.94,5.94 -11.88,11.88 -18,18 2.12,0.68 4.25,1.36 6.44,2.06 10.13,3.51 17.71,9.14 22.56,18.94 2.64,6.32 3.52,12.05 3.44,18.88 -0.01,1.31 -0.01,1.31 -0.03,2.65 -0.29,11.51 -4.07,19.9 -12.03,28.15 -8.28,7.68 -17.48,9.49 -28.4,9.42 -0.76,0 -1.52,0 -2.31,-0.01 -2.83,0 -5.65,-0.01 -8.48,-0.03 -9.5,-0.03 -9.5,-0.03 -19.19,-0.06 -0.33,-13.53 -0.66,-27.06 -1,-41 -8.09,6.64 -8.09,6.64 -8.86,12 0,1.33 0.04,2.67 0.11,4 -0.07,7.54 -0.9,12.19 -5.91,17.89 -9.17,8.96 -19.43,9.66 -31.69,9.59 -8.67,-0.23 -16.8,-1.55 -24.65,-5.48 0,-6.6 0,-13.2 0,-20 4.22,0.84 5.58,1.13 8.81,3.38 8.52,5.45 15.98,6.62 26.19,5.62 0.99,-0.66 1.98,-1.32 3,-2 -0.87,-0.84 -1.73,-1.69 -2.63,-2.55 -1.12,-1.11 -2.25,-2.22 -3.37,-3.32 -0.57,-0.56 -1.14,-1.12 -1.73,-1.69 C 234.81,244 233.4,242.5 232,241 c 0,-0.66 0,-1.32 0,-2 -0.76,-0.15 -1.52,-0.29 -2.31,-0.45 -8.38,-1.82 -16.09,-4.41 -21.19,-11.74 -2.42,-4.54 -2.69,-8.01 -2.75,-13.12 -0.04,-1.95 -0.04,-1.95 -0.08,-3.93 0.56,-6.43 3.53,-10.8 8.17,-15.08 10.77,-8.38 24.13,-7.97 37.16,-6.68 4.87,0.84 9.34,2.32 14,4 0.33,4.29 0.66,8.58 1,13 1.82,-1.74 3.63,-3.49 5.44,-5.25 0.77,-0.74 0.77,-0.74 1.56,-1.49 2.97,-2.81 2.97,-2.81 4.54,-6.49 0.15,-0.59 0.3,-1.17 0.46,-1.77 1.01,-0.32 1.01,-0.32 2.05,-0.65 4.41,-2.02 7.29,-5.32 10.66,-8.76 0.72,-0.73 1.45,-1.46 2.2,-2.22 2.3,-2.32 4.6,-4.66 6.9,-6.99 1.57,-1.59 3.14,-3.17 4.7,-4.75 3.84,-3.87 7.67,-7.75 11.49,-11.63 -3.39,-3.52 -6.93,-5.95 -11.19,-8.31 -0.7,-0.39 -1.4,-0.78 -2.12,-1.18 -30.46,-16.53 -66.06,-21.1 -99.52,-11.21 -17.11,5.55 -32.65,13.82 -46.17,25.7 -0.82,0.67 -1.64,1.35 -2.48,2.04 -8.96,7.59 -16.49,16.91 -22.52,26.96 5.61,0.33 11.22,0.66 17,1 0.65,2.03 1.3,4.06 1.98,6.15 4.6,14.31 9.21,28.61 14.02,42.85 1.75,-2.63 2.57,-4.4 3.5,-7.35 0.27,-0.87 0.55,-1.75 0.84,-2.65 0.29,-0.94 0.58,-1.88 0.88,-2.85 0.31,-0.97 0.61,-1.93 0.93,-2.93 0.97,-3.09 1.94,-6.19 2.91,-9.28 0.98,-3.1 1.95,-6.2 2.93,-9.3 0.6,-1.92 1.21,-3.85 1.81,-5.78 0.28,-0.87 0.55,-1.74 0.83,-2.64 0.36,-1.15 0.36,-1.15 0.73,-2.33 C 181,192 181,192 182,190 c 6.93,0 13.86,0 21,0 -2.25,10.13 -2.25,10.13 -3.68,14.29 -0.31,0.94 -0.63,1.88 -0.96,2.84 -0.34,0.98 -0.68,1.97 -1.03,2.98 -0.53,1.58 -0.53,1.58 -1.08,3.18 -1.14,3.35 -2.29,6.68 -3.44,10.02 -0.75,2.2 -1.5,4.4 -2.25,6.6 -4.46,13.05 -8.99,26.08 -13.56,39.09 -7.59,0 -15.18,0 -23,0 -1.13,-3.34 -2.27,-6.69 -3.44,-10.13 -1.13,-3.32 -2.25,-6.65 -3.38,-9.97 -0.77,-2.27 -1.54,-4.53 -2.31,-6.8 -5.23,-15.39 -10.51,-30.76 -15.87,-46.1 -2.85,3.64 -4.68,7.43 -6.44,11.69 -0.3,0.74 -0.61,1.48 -0.92,2.24 -9.83,24.72 -11.45,55.57 -3.64,81.07 0.21,0.71 0.42,1.42 0.63,2.15 3.04,10.11 7.4,19.23 12.51,28.44 C 133,325 133,325 134,328 123.11,335.26 112.22,342.52 101,350 86.52,335.52 79.33,311.58 75,292 74.7,290.79 74.4,289.59 74.1,288.34 65.7,250.59 73.43,208.43 92,175 c 0.81,-1.52 0.81,-1.52 1.64,-3.08 C 104,153.14 118.82,135.82 136,123 c 1.04,-0.8 2.09,-1.59 3.16,-2.41 C 158.49,106.1 180.42,96.22 204,91 c 1.21,-0.3 2.41,-0.6 3.66,-0.9 37.75,-8.4 79.91,-0.67 113.34,17.9 z m -93,98 c -1.41,2.83 -1.32,4.87 -1,8 4.96,5.06 13.87,7.11 20.68,8.08 3.42,-0.12 5.13,-1.38 7.58,-3.67 2.12,-2.37 3.97,-4.77 5.74,-7.41 -4.99,-5.38 -10.29,-7.63 -17.59,-8.36 -8.22,-0.25 -8.22,-0.25 -15.41,3.36 z m 70,0 c 0,15.84 0,31.68 0,48 12.81,0.04 12.81,0.04 22.83,-5.65 0.47,-0.57 0.94,-1.14 1.42,-1.72 0.48,-0.57 0.96,-1.13 1.45,-1.72 4.73,-6.97 4.1,-15.81 3.3,-23.91 -1.53,-6.27 -5.72,-10.46 -11,-14 -5.7,-1.9 -11.99,-1 -18,-1 z"
         fill="#5400fe"
         id="svg_1" />
      <path
         d="M 0,0 C 0.49,6.44 0.49,6.44 1,13 2.82,11.26 4.63,9.51 6.44,7.75 7.21,7.01 7.21,7.01 8,6.26 10.74,3.57 12.29,1.76 13,-2 c 5.48,-0.1 10.95,-0.17 16.43,-0.22 1.86,-0.02 3.72,-0.05 5.57,-0.08 13.75,-0.25 26.02,-0.04 37.03,9.32 7.54,7.58 11.29,16.68 11.44,27.32 -0.01,0.84 -0.02,1.67 -0.03,2.54 -0.01,1.31 -0.01,1.31 -0.03,2.65 -0.29,11.51 -4.07,19.9 -12.03,28.15 -8.28,7.68 -17.48,9.49 -28.4,9.42 -0.76,0 -1.52,0 -2.31,-0.01 -2.83,0 -5.65,-0.01 -8.48,-0.03 C 22.69,77.03 22.69,77.03 13,77 12.67,63.47 12.34,49.94 12,36 3.91,42.64 3.91,42.64 3.14,48 c 0,1.33 0.04,2.67 0.11,4 -0.07,7.54 -0.9,12.19 -5.91,17.89 -9.17,8.96 -19.43,9.66 -31.69,9.59 -8.67,-0.23 -16.8,-1.55 -24.65,-5.48 0,-6.6 0,-13.2 0,-20 4.22,0.84 5.58,1.13 8.81,3.38 8.52,5.45 15.98,6.62 26.19,5.62 0.99,-0.66 1.98,-1.32 3,-2 -0.87,-0.84 -1.73,-1.69 -2.63,-2.55 -1.12,-1.11 -2.25,-2.22 -3.37,-3.32 -0.57,-0.56 -1.14,-1.12 -1.73,-1.69 C -30.19,52 -31.6,50.5 -33,49 c 0,-0.66 0,-1.32 0,-2 -0.76,-0.15 -1.52,-0.29 -2.31,-0.45 -8.38,-1.82 -16.09,-4.41 -21.19,-11.74 -2.42,-4.54 -2.69,-8.01 -2.75,-13.12 -0.03,-1.3 -0.05,-2.59 -0.08,-3.93 0.56,-6.43 3.53,-10.8 8.17,-15.08 C -36.94,-8.38 -15.94,-5.73 0,0 Z m -37,14 c -1.41,2.83 -1.32,4.87 -1,8 4.96,5.06 13.87,7.11 20.68,8.08 3.42,-0.12 5.13,-1.38 7.58,-3.67 C -7.62,24.04 -5.77,21.64 -4,19 -8.99,13.62 -14.29,11.37 -21.59,10.64 -29.81,10.39 -29.81,10.39 -37,14 Z m 70,0 c 0,15.84 0,31.68 0,48 12.81,0.04 12.81,0.04 22.83,-5.65 0.47,-0.57 0.94,-1.14 1.42,-1.72 0.48,-0.57 0.96,-1.13 1.45,-1.72 C 63.43,45.94 62.8,37.1 62,29 60.47,22.73 56.28,18.54 51,15 45.3,13.1 39.01,14 33,14 Z"
         fill="#fffefe"
         id="svg_2"
         transform="translate(265,192)" />
      <path
         d="m 0,0 c 6.35,-0.08 12.71,-0.17 19.25,-0.25 1.98,-0.04 3.96,-0.07 6,-0.11 12.69,-0.14 23.71,0.82 33.78,9.38 7.54,7.58 11.29,16.68 11.44,27.32 -0.01,0.84 -0.02,1.67 -0.03,2.54 -0.01,0.87 -0.02,1.75 -0.03,2.65 C 70.12,53.04 66.34,61.43 58.38,69.68 42.52,84.4 20.29,79 0,79 0,52.93 0,26.86 0,0 Z m 20,16 c 0,15.84 0,31.68 0,48 12.81,0.04 12.81,0.04 22.83,-5.65 0.47,-0.57 0.94,-1.14 1.42,-1.72 0.48,-0.57 0.96,-1.13 1.45,-1.72 C 50.43,47.94 49.8,39.1 49,31 47.47,24.73 43.28,20.54 38,17 32.3,15.1 26.01,16 20,16 Z"
         fill="#fffefe"
         id="svg_3"
         transform="translate(278,190)" />
      <path
         d="m 0,0 c 6.93,0 13.86,0 21,0 0.65,2.03 1.3,4.06 1.98,6.15 4.6,14.31 9.21,28.61 14.02,42.85 1.75,-2.63 2.57,-4.4 3.5,-7.35 0.41,-1.31 0.41,-1.31 0.84,-2.65 0.29,-0.94 0.58,-1.88 0.88,-2.85 0.31,-0.97 0.61,-1.93 0.93,-2.93 0.97,-3.09 1.94,-6.19 2.91,-9.28 0.98,-3.1 1.95,-6.2 2.93,-9.3 0.6,-1.92 1.21,-3.85 1.81,-5.78 C 51.08,7.99 51.35,7.12 51.63,6.22 51.87,5.45 52.11,4.68 52.36,3.89 53,2 53,2 54,0 c 6.93,0 13.86,0 21,0 -2.25,10.13 -2.25,10.13 -3.68,14.29 -0.31,0.94 -0.63,1.88 -0.96,2.84 -0.34,0.98 -0.68,1.97 -1.03,2.98 -0.53,1.58 -0.53,1.58 -1.08,3.18 -1.14,3.35 -2.29,6.68 -3.44,10.02 -0.75,2.2 -1.5,4.4 -2.25,6.6 C 58.1,52.96 53.57,65.99 49,79 41.41,79 33.82,79 26,79 24.87,75.66 23.73,72.31 22.56,68.87 21.43,65.55 20.31,62.22 19.18,58.9 18.41,56.63 17.64,54.37 16.87,52.1 15.75,48.79 14.62,45.49 13.5,42.18 13.13,41.09 12.76,40 12.38,38.87 10.51,33.38 8.62,27.9 6.69,22.43 6.32,21.38 5.95,20.34 5.57,19.26 4.88,17.29 4.18,15.33 3.47,13.36 3.16,12.48 2.85,11.6 2.53,10.69 2.26,9.92 1.99,9.16 1.71,8.37 0.89,5.64 0.47,2.81 0,0 Z"
         fill="#fefeff"
         id="svg_4"
         transform="translate(128,190)" />
      <path
         d="m 0,0 c 68.64,0 137.28,0 208,0 0,2.64 0,5.28 0,8 C 139.36,8 70.72,8 0,8 0,5.36 0,2.72 0,0 Z"
         fill="#ffffff"
         id="svg_5"
         transform="translate(136,284)" />
      <path
         d="m 0,0 c 4.33,1.66 7.09,4.87 10.25,8.13 0.83,0.84 0.83,0.84 1.68,1.7 1.36,1.39 2.72,2.78 4.07,4.17 -1.31,2.92 -2.72,4.95 -5.01,7.17 -0.59,0.58 -1.18,1.16 -1.79,1.75 -0.62,0.61 -1.24,1.21 -1.89,1.83 -5.61,5.49 -5.61,5.49 -10.87,11.31 -0.54,0.59 -1.08,1.18 -1.64,1.79 -1.98,2.27 -1.98,2.27 -3.94,5.52 -3.06,4.28 -5.93,7.56 -10.86,9.63 -10.88,1.65 -22.07,0.8 -33,0 3.95,-4.73 8.06,-9.21 12.43,-13.56 0.59,-0.6 1.19,-1.19 1.8,-1.81 1.25,-1.24 2.5,-2.49 3.75,-3.74 1.89,-1.88 3.77,-3.77 5.66,-5.66 5.43,-5.44 10.84,-10.81 16.7,-15.79 C -9.98,10.11 -7.49,7.6 -5,5.06 -4.27,4.32 -4.27,4.32 -3.52,3.57 -2.34,2.38 -1.17,1.19 0,0 Z"
         fill="#ff0000"
         id="svg_6"
         transform="translate(335,137)" />
      <path
         d="m 0,0 c 5.46,2.96 8.72,7.49 10.6,13.28 0.74,8.19 1.53,17.3 -4,24 -5,5.17 -9.18,6.18 -16.25,6.31 -6.07,0.02 -9.99,-0.4 -14.75,-4.31 -6.28,-6.61 -6.53,-13.43 -6.31,-22.1 0.52,-6.56 2.49,-10.5 7.37,-14.84 C -17.08,-2.05 -7.29,-2.18 0,0 Z m -15.78,10.16 c -2.86,3.74 -2.81,6.24 -2.87,10.93 -0.03,1.23 -0.05,2.45 -0.08,3.71 0.35,3.71 1.09,5.55 3.33,8.48 3.09,1.55 5.59,1.29 9,1 2.36,-1.87 3.66,-3.32 5,-6 0.15,-2.27 0.22,-4.54 0.25,-6.81 0.02,-1.22 0.05,-2.45 0.08,-3.71 -0.35,-3.7 -1.1,-5.54 -3.33,-8.48 -4.01,-2 -7.88,-1.89 -11.38,0.88 z"
         fill="#929292"
         id="svg_7"
         transform="translate(235.40234,304.71875)" />
      <path
         d="m 0,0 c 5.69,-0.12 5.69,-0.12 11.5,-0.25 1.18,-0.04 2.36,-0.07 3.58,-0.11 C 21.61,-0.43 26.61,0.11 32,4 c 1.84,1.82 1.84,1.82 2.94,3.56 0.38,0.58 0.76,1.16 1.15,1.76 2.07,3.82 2.11,7.22 2.16,11.49 0.03,1.21 0.05,2.41 0.08,3.65 -0.55,5.89 -2.85,9.6 -7.33,13.35 -0.68,0.59 -1.36,1.17 -2.06,1.77 -3.43,2.51 -6.37,2.54 -10.48,2.52 C 17.01,42.09 17.01,42.09 15.53,42.09 14.3,42.08 13.08,42.07 11.81,42.06 5.97,42.03 5.97,42.03 0,42 0,28.14 0,14.28 0,0 Z m 11,8 c 0,8.58 0,17.16 0,26 8.47,-0.51 8.47,-0.51 14,-5 2.1,-4.19 1.41,-9.43 1,-14 C 24.87,11.71 24.87,11.71 22,10 18.46,8.95 14.72,8 11,8 Z"
         fill="#929292"
         id="svg_8"
         transform="translate(280,305)" />
      <path
         d="m 0,0 c 4.19,-0.06 8.37,-0.12 12.69,-0.19 1.31,-0.02 2.62,-0.05 3.97,-0.08 1.05,-0.01 2.09,-0.02 3.16,-0.02 1.07,-0.02 2.13,-0.03 3.23,-0.05 3.4,0.39 5.22,1.3 7.95,3.34 3.11,4.67 2.73,9.54 2,15 -1.38,2.78 -2.6,3.94 -5,6 -0.66,0 -1.32,0 -2,0 0.77,0.96 1.54,1.93 2.34,2.92 1.01,1.28 2.02,2.55 3.04,3.83 0.5,0.63 1.01,1.27 1.53,1.92 0.49,0.62 0.98,1.24 1.49,1.88 0.45,0.56 0.9,1.13 1.36,1.71 1.31,1.84 2.28,3.7 3.24,5.74 -4.92,0.91 -9.11,1.18 -14,0 C 21.29,39.03 18.8,35.09 16.21,31.16 14.31,27.77 14.31,27.77 11,27 c 0,4.95 0,9.9 0,15 C 7.37,42 3.74,42 0,42 0,28.14 0,14.28 0,0 Z m 11,8 c 0,3.63 0,7.26 0,11 5.59,-0.2 5.59,-0.2 10,-3 0.17,-3.08 0.17,-3.08 0,-6 C 17.38,8.68 14.9,8 11,8 Z"
         fill="#929292"
         id="svg_9"
         transform="translate(165,305)" />
      <path
         d="m 0,0 c 7.59,0 15.18,0 23,0 0,2.31 0,4.62 0,7 -1.98,0 -3.96,0 -6,0 0,9.24 0,18.48 0,28 1.98,0 3.96,0 6,0 0,2.31 0,4.62 0,7 -7.59,0 -15.18,0 -23,0 0,-2.31 0,-4.62 0,-7 1.98,0 3.96,0 6,0 C 6,25.76 6,16.52 6,7 4.02,7 2.04,7 0,7 0,4.69 0,2.38 0,0 Z"
         fill="#929292"
         id="svg_10"
         transform="translate(251,305)" />
      <path
         d="m 277.2,194.4 c 0.25,4.52 0.5,11.72 0.55,12.25 0.05,0.53 -0.08,3.87 0,5.4 0.08,1.53 0.05,16.52 -0.12,16.85 -0.17,0.33 -6.42,5.84 -9.23,7.9 -0.92,-1.16 -0.92,-1.16 -1.86,-2.34 -4.79,-5.96 -9.09,-8.91 -16.14,-11.66 1.53,-3.58 3.67,-6.03 6.37,-8.81 0.78,-0.81 3.35,-2.73 3.64,-3.26 0.29,-0.53 4.29,1.67 4.98,1.71 0.69,0.04 0.33,-2.2 0.61,-3.64 0.28,-1.44 -0.23,-3.05 -0.37,-3.61 -0.14,-0.56 2.58,-2.79 5.71,-5.7 0.56,-0.55 1.13,-1.1 1.71,-1.67 4.17,-4.02 2.97,-3.42 4.15,-3.42 z"
         fill="#ff0101"
         id="svg_11" />
      <path
         d="m 0,0 c 5.57,-0.56 9.36,1.13 14,4 2,2 2,2 2.19,5 C 16,12 16,12 15,14 10.59,13.57 8.17,10.58 5.25,7.56 4.74,7.06 4.24,6.56 3.71,6.04 0,2.27 0,2.27 0,0 Z"
         fill="#ff0707"
         id="svg_12"
         transform="translate(232,239)" />
    </g>
    <text
       xml:space="preserve"
       style="font-style:normal;font-variant:normal;font-weight:bold;font-stretch:normal;font-size:96px;line-height:1.25;font-family:sans-serif;-inkscape-font-specification:'sans-serif Bold';white-space:pre;inline-size:96.9241;fill:#000000;fill-opacity:1;stroke:none"
       x="163.75717"
       y="184.99435"
       id="text240"><tspan
         style="visibility:hidden"
         x="163.75717"
         y="184.99435"><tspan
           dx="0 74.296875 69.140625"
           style="font-size:96px">VSD</tspan></tspan></text>
  </g>
</svg>
